<svg fill="#000000" xmlns="http://www.w3.org/2000/svg"  viewBox="0 0 50 50" width="50px" height="50px"><path d="M 24.962891 1.0546875 A 1.0001 1.0001 0 0 0 24.384766 1.2636719 L 1.3847656 19.210938 A 1.0005659 1.0005659 0 1 0 2.6152344 20.789062 L 4 19.708984 L 4 46 A 1.0001 1.0001 0 0 0 5 47 L 45 47 A 1.0001 1.0001 0 0 0 46 46 L 46 19.708984 L 47.384766 20.789062 A 1.0005657 1.0005657 0 1 0 48.615234 19.210938 L 25.615234 1.2636719 A 1.0001 1.0001 0 0 0 24.962891 1.0546875 z M 25 3.3222656 L 44 18.148438 L 44 45 L 6 45 L 6 18.148438 L 25 3.3222656 z M 15 22 A 1.0001 1.0001 0 0 0 14 23 L 14 25 L 11 25 A 1.0001 1.0001 0 0 0 10 26 L 10 33 A 1.0001 1.0001 0 0 0 11 34 L 14 34 L 14 36 A 1.0001 1.0001 0 0 0 15 37 L 19 37 A 1.0001 1.0001 0 0 0 20 36 L 20 31 L 30 31 L 30 36 A 1.0001 1.0001 0 0 0 31 37 L 35 37 A 1.0001 1.0001 0 0 0 36 36 L 36 34 L 39 34 A 1.0001 1.0001 0 0 0 40 33 L 40 26 A 1.0001 1.0001 0 0 0 39 25 L 36 25 L 36 23 A 1.0001 1.0001 0 0 0 35 22 L 31 22 A 1.0001 1.0001 0 0 0 30 23 L 30 28 L 20 28 L 20 23 A 1.0001 1.0001 0 0 0 19 22 L 15 22 z M 16 24 L 18 24 L 18 29 L 18 30 L 18 35 L 16 35 L 16 33 L 16 26 L 16 24 z M 32 24 L 34 24 L 34 26 L 34 33 L 34 35 L 32 35 L 32 30 L 32 29 L 32 24 z M 12 27 L 14 27 L 14 32 L 12 32 L 12 27 z M 36 27 L 38 27 L 38 32 L 36 32 L 36 27 z"/></svg>