<?xml version="1.0" encoding="UTF-8"?>
<svg xmlns="http://www.w3.org/2000/svg" xmlns:xlink="http://www.w3.org/1999/xlink" viewBox="0 0 36 36" width="36px" height="36px">
<g id="surface21821781">
<path style=" stroke:none;fill-rule:nonzero;fill:rgb(60.784316%,34.901962%,71.372551%);fill-opacity:1;" d="M 8.113281 5.5625 C 6.308594 12.242188 1.609375 15.890625 0.738281 19.109375 C -0.128906 22.328125 -0.105469 29.585938 14.695312 33.585938 C 29.496094 37.589844 34.128906 29.085938 35.082031 25.546875 C 39.5625 8.972656 11.3125 -6.261719 8.113281 5.5625 Z M 8.113281 5.5625 "/>
<path style=" stroke:none;fill-rule:nonzero;fill:rgb(92.54902%,94.117647%,94.509804%);fill-opacity:1;" d="M 30.410156 16.183594 L 31.117188 15.476562 L 32.53125 16.890625 L 31.824219 17.597656 Z M 30.410156 16.183594 "/>
<path style=" stroke:none;fill-rule:nonzero;fill:rgb(92.54902%,94.117647%,94.509804%);fill-opacity:1;" d="M 26.34375 12.117188 L 27.050781 11.410156 L 28.464844 12.824219 L 27.757812 13.53125 Z M 26.34375 12.117188 "/>
<path style=" stroke:none;fill-rule:nonzero;fill:rgb(92.54902%,94.117647%,94.509804%);fill-opacity:1;" d="M 30.585938 12.824219 L 32 11.410156 L 32.707031 12.117188 L 31.292969 13.53125 Z M 30.585938 12.824219 "/>
<path style=" stroke:none;fill-rule:nonzero;fill:rgb(92.54902%,94.117647%,94.509804%);fill-opacity:1;" d="M 8.488281 14.550781 C 7.660156 14.550781 6.988281 13.878906 6.988281 13.050781 C 6.988281 12.222656 7.660156 11.550781 8.488281 11.550781 C 9.3125 11.550781 9.988281 12.222656 9.988281 13.050781 C 9.988281 13.878906 9.3125 14.550781 8.488281 14.550781 Z M 8.488281 12.550781 C 8.210938 12.550781 7.988281 12.777344 7.988281 13.050781 C 7.988281 13.324219 8.210938 13.550781 8.488281 13.550781 C 8.761719 13.550781 8.988281 13.324219 8.988281 13.050781 C 8.988281 12.777344 8.761719 12.550781 8.488281 12.550781 Z M 8.488281 12.550781 "/>
<path style=" stroke:none;fill-rule:nonzero;fill:rgb(92.54902%,94.117647%,94.509804%);fill-opacity:1;" d="M 17.859375 13.050781 C 14.933594 13.050781 12.050781 14.75 10.300781 17.148438 C 11.332031 17.125 12.335938 17.191406 12.914062 17.238281 C 14.152344 17.34375 15.660156 17.605469 17.289062 18.035156 C 19.558594 17.148438 21.945312 16.355469 24 15.972656 C 22.414062 14.222656 20.230469 13.050781 17.859375 13.050781 Z M 17.859375 13.050781 "/>
<path style=" stroke:none;fill-rule:nonzero;fill:rgb(95.294118%,95.294118%,94.509804%);fill-opacity:1;" d="M 24.015625 15.96875 C 21.953125 16.351562 19.566406 17.144531 17.289062 18.035156 C 20.214844 18.804688 23.546875 20.132812 26.511719 22.191406 C 26.511719 19.925781 25.539062 17.675781 24 15.972656 C 24.003906 15.96875 24.007812 15.96875 24.015625 15.96875 Z M 24.015625 15.96875 "/>
<path style=" stroke:none;fill-rule:nonzero;fill:rgb(95.294118%,95.294118%,94.509804%);fill-opacity:1;" d="M 12.914062 17.238281 C 12.335938 17.191406 11.332031 17.125 10.300781 17.148438 C 9.25 18.585938 8.609375 20.269531 8.609375 21.992188 C 8.609375 21.992188 12.714844 19.820312 17.289062 18.035156 C 15.660156 17.605469 14.152344 17.34375 12.914062 17.238281 Z M 12.914062 17.238281 "/>
<path style=" stroke:none;fill-rule:nonzero;fill:rgb(92.54902%,94.117647%,94.509804%);fill-opacity:1;" d="M 6.769531 18.320312 C 6.171875 20.117188 8.609375 21.992188 8.609375 21.992188 C 8.609375 20.273438 9.25 18.585938 10.300781 17.148438 C 8.714844 17.183594 7.0625 17.4375 6.769531 18.320312 Z M 6.769531 18.320312 "/>
<path style=" stroke:none;fill-rule:nonzero;fill:rgb(92.54902%,94.117647%,94.509804%);fill-opacity:1;" d="M 24 15.96875 C 25.539062 17.675781 26.511719 19.925781 26.511719 22.191406 C 27.113281 22.003906 29.207031 20.761719 29.480469 18.832031 C 29.90625 15.8125 27.402344 15.332031 24 15.96875 Z M 24 15.96875 "/>
<path style=" stroke:none;fill-rule:nonzero;fill:rgb(92.54902%,94.117647%,94.509804%);fill-opacity:1;" d="M 15.164062 17.238281 C 14.585938 17.191406 13.582031 17.125 12.550781 17.148438 C 14.066406 15.070312 16.4375 13.519531 18.945312 13.140625 C 18.589844 13.089844 18.226562 13.050781 17.859375 13.050781 C 14.933594 13.050781 12.050781 14.75 10.300781 17.148438 C 11.332031 17.125 12.335938 17.191406 12.914062 17.238281 C 14.152344 17.34375 15.660156 17.605469 17.289062 18.035156 C 17.578125 17.921875 17.871094 17.816406 18.160156 17.707031 C 17.0625 17.472656 16.042969 17.3125 15.164062 17.238281 Z M 15.164062 17.238281 "/>
<path style=" stroke:none;fill-rule:nonzero;fill:rgb(92.54902%,94.117647%,94.509804%);fill-opacity:1;" d="M 19.539062 18.035156 C 21.144531 17.40625 22.804688 16.835938 24.367188 16.414062 C 24.246094 16.265625 24.128906 16.113281 24 15.972656 C 21.945312 16.355469 19.558594 17.144531 17.289062 18.03125 C 20.214844 18.804688 23.546875 20.132812 26.511719 22.191406 C 26.511719 21.699219 26.457031 21.210938 26.367188 20.722656 C 24.078125 19.476562 21.699219 18.601562 19.539062 18.035156 Z M 19.539062 18.035156 "/>
<path style=" stroke:none;fill-rule:nonzero;fill:rgb(92.54902%,94.117647%,94.509804%);fill-opacity:1;" d="M 24 15.96875 C 24 15.972656 24 15.972656 24 15.96875 C 24.003906 15.96875 24.007812 15.96875 24.011719 15.96875 C 24.007812 15.96875 24.003906 15.96875 24 15.96875 Z M 24 15.96875 "/>
<path style=" stroke:none;fill-rule:nonzero;fill:rgb(92.54902%,94.117647%,94.509804%);fill-opacity:1;" d="M 12.507812 17.210938 C 11.921875 17.167969 11.125 17.128906 10.300781 17.148438 C 9.25 18.585938 8.609375 20.269531 8.609375 21.992188 C 8.609375 21.992188 9.523438 21.507812 10.960938 20.8125 C 11.175781 19.535156 11.722656 18.300781 12.507812 17.210938 Z M 12.507812 17.210938 "/>
<path style=" stroke:none;fill-rule:nonzero;fill:rgb(92.54902%,94.117647%,94.509804%);fill-opacity:1;" d="M 26.25 15.96875 C 26.628906 15.898438 26.996094 15.84375 27.355469 15.800781 C 26.4375 15.648438 25.28125 15.730469 24 15.96875 C 25.539062 17.675781 26.511719 19.925781 26.511719 22.191406 C 26.890625 22.074219 27.871094 21.527344 28.609375 20.65625 C 28.28125 18.929688 27.441406 17.285156 26.25 15.96875 Z M 26.25 15.96875 "/>
<path style=" stroke:none;fill-rule:nonzero;fill:rgb(0%,0%,0%);fill-opacity:1;" d="M 26.28125 23 C 26.128906 23 25.980469 22.953125 25.851562 22.867188 C 23.101562 20.957031 19.984375 19.691406 17.238281 18.941406 C 14.304688 20.089844 11.316406 21.492188 9.003906 22.714844 C 8.746094 22.851562 8.429688 22.824219 8.195312 22.648438 C 8.082031 22.558594 5.382812 20.449219 6.128906 18.199219 C 6.300781 17.683594 6.828125 16.113281 12.953125 16.628906 C 14.171875 16.730469 15.601562 16.964844 17.144531 17.355469 C 21.675781 15.621094 26.652344 14.304688 28.8125 15.820312 C 29.472656 16.285156 30.203125 17.21875 29.945312 19.050781 C 29.625 21.324219 27.308594 22.71875 26.5 22.96875 C 26.429688 22.988281 26.355469 23 26.28125 23 Z M 19.578125 18.078125 C 21.820312 18.847656 24.175781 19.933594 26.363281 21.398438 C 27.019531 21.046875 28.285156 20.101562 28.460938 18.839844 C 28.628906 17.671875 28.25 17.257812 27.953125 17.046875 C 26.644531 16.128906 23.316406 16.792969 19.578125 18.078125 Z M 10.730469 18.027344 C 8.367188 18.027344 7.621094 18.476562 7.554688 18.675781 C 7.273438 19.515625 8.148438 20.574219 8.757812 21.152344 C 9.785156 20.621094 12.023438 19.496094 14.671875 18.363281 C 14.003906 18.25 13.386719 18.167969 12.832031 18.121094 C 12.019531 18.054688 11.324219 18.027344 10.730469 18.027344 Z M 10.730469 18.027344 "/>
<path style=" stroke:none;fill-rule:nonzero;fill:rgb(0%,0%,0%);fill-opacity:1;" d="M 27.03125 22.25 L 25.53125 22.25 C 25.53125 17.933594 21.828125 14 17.761719 14 C 13.542969 14 9.40625 17.988281 9.40625 22.054688 L 7.90625 22.054688 C 7.90625 17.144531 12.695312 12.5 17.761719 12.5 C 22.613281 12.5 27.03125 17.148438 27.03125 22.25 Z M 27.03125 22.25 "/>
</g>
</svg>
