<svg width="20" height="20" viewBox="0 0 20 20" fill="none" xmlns="http://www.w3.org/2000/svg">
<path d="M10.5855 10.5855V0C4.91543 0.29741 0.29741 4.91538 0 10.5855H10.5855ZM8.24185 8.82776H7.07003V7.65594H8.24185V8.82776ZM4.72637 5.31228H5.8982V6.48411H4.72637V5.31228ZM7.65594 5.06967L8.48446 5.8982L5.31228 9.07037L4.48376 8.24185L7.65594 5.06967Z" fill="#314CA3"/>
<path d="M10.5853 11.7573H3.57666C3.8622 15.4914 6.85125 18.4804 10.5853 18.766V11.7573H10.5853Z" fill="#314CA3"/>
<path d="M11.757 2.34366C11.757 2.46951 11.757 20.1375 11.757 19.9992C16.3299 19.6955 19.9988 15.7615 19.9988 11.1129C19.9988 6.46392 16.331 2.64634 11.757 2.34366ZM15.2724 10.5855C16.2417 10.5855 17.0302 11.374 17.0302 12.3432C17.0302 13.1061 16.5389 13.7504 15.8584 13.9931V15.2728H14.6865V13.9931C14.006 13.7504 13.5147 13.1061 13.5147 12.3432H14.6865C14.6865 12.6665 14.9492 12.9292 15.2724 12.9292C15.5957 12.9292 15.8584 12.6665 15.8584 12.3432C15.8584 12.02 15.5957 11.7573 15.2724 11.7573C14.3032 11.7573 13.5147 10.9689 13.5147 9.99959C13.5147 9.23673 14.006 8.59246 14.6865 8.34978V7.07003H15.8584V8.34978C16.5389 8.59246 17.0302 9.23673 17.0302 9.99959H15.8584C15.8584 9.67633 15.5957 9.41368 15.2724 9.41368C14.9492 9.41368 14.6865 9.67633 14.6865 9.99959C14.6865 10.3229 14.9492 10.5855 15.2724 10.5855Z" fill="#314CA3"/>
</svg>
