<svg width="20" height="20" viewBox="0 0 20 20" fill="none" xmlns="http://www.w3.org/2000/svg">
<path d="M19.9847 3.48191C19.8996 2.51519 18.7261 2.08476 18.0391 2.77179L17.0579 3.753C16.8386 3.97238 16.4784 3.97597 16.255 3.76097C16.0232 3.53788 16.0352 3.15355 16.2631 2.92574L17.2281 1.96066C17.9144 1.27437 17.4858 0.100384 16.5183 0.0151885C13.8886 -0.216022 11.8029 2.22956 12.5003 4.82285L0.55481 16.7683C-0.184878 17.508 -0.184995 18.7053 0.55481 19.4451C1.29282 20.183 2.49356 20.1831 3.23157 19.4451L15.1739 7.50265C17.7363 8.19937 20.2184 6.1355 19.9847 3.48191Z" fill="#314CA3"/>
<path d="M1.2498 4.58731C1.27781 4.64254 1.31437 4.69301 1.35816 4.7368L3.05379 6.43238C3.28262 6.66121 3.65359 6.66117 3.88238 6.43238L4.74469 5.57008L6.39148 7.21688L4.6309 8.97742C4.17469 9.43445 4.17508 10.1778 4.63129 10.6344L4.81605 10.8191L10.8252 4.81043L10.6404 4.62566C10.1818 4.16789 9.44187 4.16723 8.98265 4.62566L7.22008 6.38824L5.57328 4.74145L6.43558 3.87914C6.66441 3.65035 6.66441 3.27934 6.43558 3.05055L4.74 1.35492C4.69574 1.31063 4.64465 1.27375 4.58871 1.24566L2.42144 0.156915C2.19566 0.0434774 1.92277 0.0875008 1.7441 0.266173L0.26324 1.74699C0.0840998 1.92613 0.0403889 2.20008 0.154881 2.42609L1.2498 4.58731Z" fill="#314CA3"/>
<path d="M14.255 10.079L10.0841 14.2499L14.8741 19.0411C16.0264 20.1934 17.892 20.1937 19.0446 19.0411C20.1946 17.8912 20.1946 16.0201 19.0446 14.8706L14.255 10.079ZM17.6873 17.6826C17.4599 17.9107 17.088 17.9117 16.8588 17.6826L13.5332 14.3569C13.3043 14.128 13.3043 13.757 13.5332 13.5285C13.7621 13.2996 14.1331 13.2996 14.3616 13.5285L17.6873 16.8541C17.9161 17.083 17.9161 17.4537 17.6873 17.6826Z" fill="#314CA3"/>
</svg>
