<svg width="18" height="20" viewBox="0 0 18 20" fill="none" xmlns="http://www.w3.org/2000/svg">
<path d="M15.5809 0C14.437 0 13.5096 0.927344 13.5096 2.07129V8.25156H17.0663C17.3899 8.25156 17.6522 7.98922 17.6522 7.66563V2.07129C17.6522 0.927344 16.7249 0 15.5809 0V0Z" fill="#314CA3"/>
<path d="M5.91058 14.7266C5.91058 11.187 8.78992 8.27176 12.3769 8.28152V2.32367C12.3769 1.43238 12.7124 0.618086 13.2635 0H2.92891C1.31406 0 0 1.31406 0 2.92891V19.4035C0 19.9306 0.644805 20.1896 1.00937 19.8086L1.75898 19.0258L2.55078 19.818C2.7793 20.0465 3.15039 20.0465 3.3793 19.818L4.12969 19.068L4.8875 19.8195C5.11601 20.0461 5.48437 20.0461 5.71289 19.8195L6.48281 19.0562L7.25312 19.8195C7.48125 20.0461 7.84922 20.0461 8.07773 19.8199L8.22695 19.6723C6.77414 18.4576 5.91058 16.6616 5.91058 14.7266ZM4.74008 4.72656H5.89648V3.57016C5.89648 3.24656 6.15883 2.98422 6.48242 2.98422C6.80602 2.98422 7.06836 3.24656 7.06836 3.57016V4.72656H8.22476C8.54836 4.72656 8.8107 4.98891 8.8107 5.3125C8.8107 5.63609 8.54836 5.89844 8.22476 5.89844H7.06836V7.05484C7.06836 7.37844 6.80602 7.64078 6.48242 7.64078C6.15883 7.64078 5.89648 7.37844 5.89648 7.05484V5.89844H4.74008C4.41648 5.89844 4.15414 5.63609 4.15414 5.3125C4.15414 4.98891 4.41648 4.72656 4.74008 4.72656ZM2.96676 8.83008H6.91211C7.2357 8.83008 7.49805 9.09242 7.49805 9.41602C7.49805 9.73961 7.2357 10.002 6.91211 10.002H2.96676C2.64316 10.002 2.38082 9.73961 2.38082 9.41602C2.38082 9.09242 2.64316 8.83008 2.96676 8.83008ZM4.92184 14.6855H2.96285C2.63926 14.6855 2.37691 14.4232 2.37691 14.0996C2.37691 13.776 2.63926 13.5137 2.96285 13.5137H4.92184C5.24543 13.5137 5.50777 13.776 5.50777 14.0996C5.50777 14.4232 5.24543 14.6855 4.92184 14.6855ZM5.3125 12.3457H2.96477C2.64117 12.3457 2.37883 12.0834 2.37883 11.7598C2.37883 11.4362 2.64117 11.1738 2.96477 11.1738H5.3125C5.63609 11.1738 5.89844 11.4362 5.89844 11.7598C5.89844 12.0834 5.63609 12.3457 5.3125 12.3457Z" fill="#314CA3"/>
<path d="M12.3558 9.45312C9.44806 9.45312 7.0824 11.8188 7.0824 14.7266C7.0824 17.6343 9.44806 20 12.3558 20C15.2636 20 17.6293 17.6343 17.6293 14.7266C17.6293 11.8188 15.2636 9.45312 12.3558 9.45312ZM12.9436 16.9832V17.0389C12.9436 17.3625 12.6813 17.6248 12.3577 17.6248C12.0341 17.6248 11.7717 17.3625 11.7717 17.0389V17.0289C11.5093 16.9664 11.2658 16.863 11.0727 16.7367C10.8019 16.5595 10.726 16.1964 10.9031 15.9255C11.0803 15.6547 11.4434 15.5788 11.7142 15.756C11.954 15.9129 12.3494 15.9725 12.5436 15.8811C12.6695 15.8218 12.767 15.6954 12.7805 15.5736C12.8095 15.3141 12.4031 15.1694 12.1604 15.0735C11.7931 14.9285 11.336 14.7479 11.0706 14.2689C10.6924 13.5861 11.0237 12.6858 11.7717 12.3779V12.3484C11.7717 12.0248 12.0341 11.7625 12.3577 11.7625C12.6781 11.7625 12.938 12.0198 12.9431 12.3389C13.154 12.4048 13.3483 12.5103 13.5039 12.6538C13.7418 12.8732 13.7567 13.2439 13.5373 13.4818C13.3179 13.7197 12.9472 13.7346 12.7094 13.5152C12.613 13.4263 12.3159 13.3904 12.1868 13.4771C12.1 13.5354 12.066 13.6473 12.0957 13.7009C12.2195 13.9243 12.8675 14.0009 13.3579 14.3831C14.3598 15.1638 14.0112 16.5736 12.9436 16.9832Z" fill="#314CA3"/>
</svg>
