<svg width="20" height="20" viewBox="0 0 20 20" fill="none" xmlns="http://www.w3.org/2000/svg">
<path d="M3.36682 17.2182C3.69042 17.2182 3.95276 16.9558 3.95276 16.6322C3.95276 16.3086 3.69042 16.0463 3.36682 16.0463C3.04321 16.0463 2.78088 16.3086 2.78088 16.6322C2.78088 16.9558 3.04321 17.2182 3.36682 17.2182Z" fill="#314CA3"/>
<path d="M15.8665 9.62938C16.9013 9.47715 17.8401 9.00477 18.5816 8.26328C19.2875 7.55742 19.7521 6.66633 19.9252 5.68637C20.0942 4.72918 19.9754 3.75563 19.5814 2.87094C19.4143 2.49571 18.922 2.40469 18.6318 2.69496L16.2315 5.0952C16.1324 5.19426 15.9713 5.19426 15.8722 5.0952L14.9043 4.12743C14.8054 4.02852 14.8054 3.86758 14.9043 3.76868L17.3049 1.36813C17.5954 1.07766 17.5039 0.585551 17.129 0.418598C16.2442 0.0246137 15.2706 -0.0942925 14.3135 0.07477C13.3335 0.247817 12.4423 0.712426 11.7364 1.41832C10.9949 2.15977 10.5225 3.0986 10.3703 4.13328C10.2446 4.98719 10.3449 5.84153 10.66 6.63082L8.90232 8.07461L4.97721 4.14965L5.66775 3.45914C5.91522 3.21172 5.89186 2.80305 5.61725 2.58555L2.96053 0.481332C2.72737 0.296684 2.39276 0.315981 2.18241 0.526332L0.525141 2.18352C0.31479 2.39383 0.295415 2.7284 0.480141 2.96161L2.58444 5.61821C2.80194 5.89278 3.21033 5.91645 3.45807 5.66871L4.14858 4.97821L7.99248 8.82196L0.777211 14.7488C-0.183374 15.5085 -0.266265 16.9379 0.599555 17.8037L2.19565 19.3997C3.06135 20.2654 4.49072 20.1828 5.25072 19.2221L11.1777 12.0071L11.7731 12.6025L10.9167 13.4588C10.6966 13.6789 10.687 14.0327 10.8948 14.2643L15.3599 19.2422C16.238 20.2168 17.7528 20.2574 18.6813 19.3288L19.3282 18.682C20.2587 17.7515 20.2146 16.2257 19.2311 15.3507C19.2307 15.3504 19.2303 15.35 19.2299 15.3497L14.229 10.9247C13.9971 10.7195 13.6455 10.7302 13.4264 10.9492L12.6017 11.7739L11.9251 11.0973L13.3689 9.33965C14.1582 9.65477 15.0126 9.755 15.8665 9.62938ZM3.09459 4.37496L1.72276 2.64309L2.64198 1.72391L4.37393 3.09567L3.09459 4.37496ZM13.8653 12.1675L18.4526 16.2265C18.6849 16.4334 18.8178 16.7185 18.8269 17.0295C18.836 17.3406 18.7198 17.6332 18.4996 17.8534L17.8528 18.5002C17.6336 18.7193 17.3423 18.8359 17.0327 18.8275C16.7229 18.8195 16.4381 18.6882 16.2314 18.4588L12.1378 13.895L13.8653 12.1675ZM12.7494 8.24778L10.681 10.7655C10.6808 10.7659 10.6805 10.7662 10.6802 10.7665L4.34151 18.4828C4.33881 18.4861 4.33612 18.4894 4.33346 18.4928C4.00865 18.9064 3.39701 18.9438 3.02428 18.5711L1.42819 16.9751C1.05631 16.6032 1.09202 15.9915 1.50659 15.666C1.50995 15.6634 1.51327 15.6607 1.51659 15.6579L9.23318 9.31934C9.23342 9.31914 9.23361 9.31899 9.23385 9.31879L11.7519 7.25039C11.9657 7.07481 12.0275 6.7736 11.9002 6.52801C11.1617 5.10348 11.4289 3.38305 12.565 2.24692C13.2647 1.54727 14.2119 1.17547 15.1698 1.17547C15.3761 1.17547 15.5831 1.19274 15.7881 1.2277L14.0756 2.94004C13.5199 3.49582 13.5199 4.40016 14.0757 4.95598L15.0435 5.92375C15.5994 6.47969 16.5042 6.47977 17.0601 5.92375L18.7722 4.21176C18.9694 5.36809 18.6034 6.5843 17.753 7.43469C16.6168 8.57078 14.8963 8.83793 13.4717 8.09953C13.2262 7.97219 12.9249 8.03399 12.7494 8.24778Z" fill="#314CA3"/>
</svg>
