<svg width="18" height="18" viewBox="0 0 18 18" fill="none" xmlns="http://www.w3.org/2000/svg">
<path d="M8.99999 7.08265C9.3629 7.08265 9.65927 7.37827 9.65927 7.74117C9.65927 8.07232 9.92842 8.34072 10.2596 8.34072C10.59 8.34072 10.8591 8.07232 10.8591 7.74117C10.8591 6.92766 10.3291 6.24117 9.59954 5.99017V5.64994C9.59954 5.31955 9.33114 5.04964 8.99999 5.04964C8.66809 5.04964 8.39969 5.31955 8.39969 5.64994V5.99017C7.6701 6.24117 7.14163 6.92766 7.14163 7.74117C7.14163 8.76713 7.97479 9.60029 8.99999 9.60029C9.3629 9.60029 9.65927 9.89666 9.65927 10.2596C9.65927 10.6232 9.3629 10.9188 8.99999 10.9188C8.63709 10.9188 8.34147 10.6232 8.34147 10.2596C8.34147 9.92842 8.07232 9.65927 7.74117 9.65927C7.40927 9.65927 7.14163 9.92842 7.14163 10.2596C7.14163 11.0731 7.6701 11.7588 8.39969 12.0098V12.35C8.39969 12.6819 8.66809 12.9511 8.99999 12.9511C9.33114 12.9511 9.59954 12.6819 9.59954 12.35V12.0098C10.3291 11.7588 10.8591 11.0731 10.8591 10.2596C10.8591 9.23437 10.0252 8.40045 8.99999 8.40045C8.63709 8.40045 8.34147 8.10483 8.34147 7.74117C8.34147 7.37827 8.63709 7.08265 8.99999 7.08265ZM14.027 12.3319C14.3211 12.4869 14.6832 12.3742 14.8374 12.0824C15.3364 11.1396 15.5995 10.0736 15.5995 8.99999C15.5995 5.36189 12.6381 2.40121 8.99999 2.40121C5.36114 2.40121 2.40045 5.36189 2.40045 8.99999C2.40045 12.6389 5.36114 15.5995 8.99999 15.5995C10.0577 15.5995 11.1086 15.344 12.0393 14.8594C12.3334 14.7074 12.4476 14.3437 12.2948 14.0504C12.1421 13.7578 11.78 13.6414 11.4851 13.7948C10.7147 14.1971 9.87776 14.4004 8.99999 14.4004C6.02268 14.4004 3.59954 11.9781 3.59954 8.99999C3.59954 6.02343 6.02268 3.6003 8.99999 3.6003C11.9773 3.6003 14.4004 6.02343 14.4004 8.99999C14.4004 9.87928 14.1842 10.751 13.7775 11.5207C13.6217 11.814 13.7336 12.1769 14.027 12.3319ZM8.99999 0C7.26184 0 5.57434 0.497479 4.12046 1.43725C3.84148 1.61719 3.76209 1.98841 3.94203 2.26663C4.12273 2.54486 4.49244 2.62349 4.77217 2.44506C6.03024 1.63155 7.49395 1.2006 8.99999 1.2006C13.3011 1.2006 16.7994 4.69959 16.7994 8.99999C16.7994 13.3011 13.3011 16.8001 8.99999 16.8001C4.69884 16.8001 1.19985 13.3011 1.19985 8.99999C1.19985 7.50831 1.62248 6.05745 2.42313 4.8062C2.60156 4.52646 2.51991 4.15524 2.24017 3.97681C1.96119 3.79838 1.58997 3.88004 1.4123 4.15902C0.488407 5.60383 0 7.27923 0 8.99999C0 13.9634 4.03654 18 8.99999 18C13.9627 18 18 13.9634 18 8.99999C18 4.03805 13.9627 0 8.99999 0Z" fill="#314CA3"/>
</svg>
