<svg width="15" height="17" viewBox="0 0 15 17" fill="none" xmlns="http://www.w3.org/2000/svg">
<path d="M13.4249 4.26521C13.4147 3.13158 12.9576 2.04777 12.153 1.24918C11.3483 0.450588 10.2611 0.0017148 9.12738 5.37287e-05H2.87226C2.71689 -0.00194595 2.56597 0.0519309 2.447 0.15187C2.32802 0.251809 2.2489 0.391161 2.22406 0.544541L0.00721247 14.4484C-0.00663836 14.5405 -0.000491383 14.6345 0.0252349 14.724C0.0509613 14.8134 0.0956631 14.8963 0.156298 14.967C0.216542 15.0393 0.291818 15.0977 0.376893 15.138C0.461967 15.1783 0.554798 15.1995 0.64893 15.2003H3.32599L3.18339 16.1013C3.16825 16.1947 3.17373 16.2903 3.19945 16.3813C3.22517 16.4724 3.27051 16.5567 3.33228 16.6283C3.39405 16.7 3.47076 16.7573 3.55702 16.7961C3.64327 16.835 3.73699 16.8545 3.83159 16.8532H6.84572C7.00014 16.8555 7.15029 16.8025 7.26913 16.7039C7.38796 16.6053 7.46768 16.4674 7.49392 16.3152L8.14212 12.3547H10.1839C11.4619 12.3496 12.6859 11.8388 13.5884 10.9339C14.4908 10.029 14.9984 8.80364 15.0001 7.52565V7.34416C14.9994 6.74301 14.8563 6.15056 14.5825 5.61538C14.3088 5.0802 13.9121 4.6175 13.4249 4.26521ZM3.42322 1.29645H9.12738C9.80744 1.29854 10.4667 1.53104 10.9976 1.95602C11.5286 2.38099 11.8998 2.97336 12.0508 3.63645C11.7703 3.57069 11.4832 3.53805 11.1951 3.53922H5.78915C5.63379 3.53722 5.48287 3.5911 5.36389 3.69104C5.24492 3.79098 5.1658 3.93033 5.14095 4.08371L4.75852 6.48205C4.73101 6.65396 4.77292 6.82976 4.87503 6.97077C4.97714 7.11178 5.13109 7.20646 5.303 7.23396C5.47492 7.26147 5.65072 7.21956 5.79173 7.11744C5.93274 7.01533 6.02741 6.86139 6.05491 6.68947L6.35309 4.82266H11.2081C11.5188 4.82429 11.8265 4.88364 12.1156 4.99767C11.9924 6.0124 11.5028 6.94719 10.7389 7.62636C9.97494 8.30553 8.98928 8.68233 7.9671 8.68593H4.95946C4.80504 8.68368 4.65489 8.73665 4.53605 8.83528C4.41721 8.93392 4.3375 9.07174 4.31126 9.22394L3.52045 13.9039H1.40732L3.42322 1.29645ZM13.7037 7.52565C13.702 8.45982 13.331 9.35542 12.6717 10.0172C12.0123 10.679 11.1181 11.0532 10.1839 11.0583H7.59115C7.43673 11.0561 7.28658 11.1091 7.16774 11.2077C7.0489 11.3063 6.96919 11.4442 6.94295 11.5963L6.29475 15.5568H4.5835L4.72611 14.6558L5.50395 9.99529H7.95414C9.16424 9.99174 10.3392 9.58801 11.2959 8.84703C12.2526 8.10605 12.9374 7.06942 13.2434 5.89867C13.5443 6.32048 13.7053 6.82605 13.7037 7.34416V7.52565Z" fill="#314CA3"/>
</svg>
