<svg width="20" height="16" viewBox="0 0 20 16" fill="none" xmlns="http://www.w3.org/2000/svg">
<path d="M14.247 15.9H2.393C1.75854 15.8993 1.15026 15.647 0.701624 15.1983C0.252993 14.7497 0.000661793 14.1414 0 13.507V6.43245C0.000661793 5.79799 0.252993 5.18971 0.701624 4.74108C1.15026 4.29245 1.75854 4.04011 2.393 4.03945H14.247C14.8815 4.04011 15.4897 4.29245 15.9384 4.74108C16.387 5.18971 16.6393 5.79799 16.64 6.43245V13.507C16.6393 14.1414 16.387 14.7497 15.9384 15.1983C15.4897 15.647 14.8815 15.8993 14.247 15.9ZM2.393 5.53945C2.15624 5.53972 1.92926 5.63389 1.76185 5.8013C1.59443 5.96871 1.50026 6.1957 1.5 6.43245V13.507C1.50026 13.7437 1.59443 13.9707 1.76185 14.1381C1.92926 14.3055 2.15624 14.3997 2.393 14.4H14.247C14.4838 14.3997 14.7107 14.3055 14.8782 14.1381C15.0456 13.9707 15.1397 13.7437 15.14 13.507V6.43245C15.1397 6.1957 15.0456 5.96871 14.8782 5.8013C14.7107 5.63389 14.4838 5.53972 14.247 5.53945H2.393Z" fill="#314CA3"/>
<path d="M17.608 11.861H15.89C15.6911 11.861 15.5003 11.782 15.3597 11.6413C15.219 11.5007 15.14 11.3099 15.14 11.111C15.14 10.9121 15.219 10.7213 15.3597 10.5807C15.5003 10.44 15.6911 10.361 15.89 10.361H17.608C17.8446 10.3605 18.0713 10.2662 18.2385 10.0988C18.4057 9.93142 18.4997 9.70458 18.5 9.468V2.3935C18.4999 2.15683 18.4059 1.92987 18.2387 1.76238C18.0715 1.59488 17.8447 1.50053 17.608 1.5H5.754C5.51724 1.50026 5.29026 1.59443 5.12285 1.76185C4.95543 1.92926 4.86126 2.15624 4.861 2.393V4.789C4.861 4.98791 4.78198 5.17868 4.64133 5.31933C4.50068 5.45998 4.30991 5.539 4.111 5.539C3.91209 5.539 3.72132 5.45998 3.58067 5.31933C3.44002 5.17868 3.361 4.98791 3.361 4.789V2.3935C3.36153 1.75895 3.6138 1.15054 4.06245 0.701801C4.51109 0.253062 5.11945 0.000662007 5.754 0H17.608C18.2424 0.000926646 18.8505 0.253444 19.2989 0.702155C19.7473 1.15087 19.9995 1.75913 20 2.3935V9.468C19.9993 10.1023 19.7471 10.7104 19.2987 11.159C18.8503 11.6076 18.2423 11.8601 17.608 11.861Z" fill="#314CA3"/>
<path d="M15.89 10.5395H0.75C0.551088 10.5395 0.360322 10.4605 0.21967 10.3198C0.0790176 10.1792 0 9.98842 0 9.7895V7.2705C0 7.07159 0.0790176 6.88082 0.21967 6.74017C0.360322 6.59952 0.551088 6.5205 0.75 6.5205H15.89C16.0889 6.5205 16.2797 6.59952 16.4203 6.74017C16.561 6.88082 16.64 7.07159 16.64 7.2705V9.7895C16.64 9.98842 16.561 10.1792 16.4203 10.3198C16.2797 10.4605 16.0889 10.5395 15.89 10.5395ZM1.5 9.0395H15.14V8.0205H1.5V9.0395Z" fill="#314CA3"/>
</svg>
