<svg width="20" height="17" viewBox="0 0 20 17" fill="none" xmlns="http://www.w3.org/2000/svg">
<path d="M18.3333 2.50004H14.1666V1.66668C14.1666 0.747499 13.4192 0 12.5 0H7.49998C6.5808 0 5.8333 0.74746 5.8333 1.66668V2.5H1.66667C0.747459 2.50004 0 3.24749 0 4.16667V6.66667C0 7.58589 0.747459 8.33335 1.66667 8.33335H8.33333V7.91667C8.33333 7.68635 8.5197 7.49999 8.75001 7.49999H11.25C11.4803 7.49999 11.6667 7.68635 11.6667 7.91667V8.33335H18.3333C19.2525 8.33335 19.9999 7.58589 19.9999 6.66667V4.16667C19.9999 3.24749 19.2525 2.50004 18.3333 2.50004ZM12.5 2.50004H7.49998V1.66668H12.5V2.50004Z" fill="#314CA3"/>
<path d="M19.7688 8.78296C19.6268 8.71257 19.4571 8.72886 19.3318 8.82405C19.0356 9.04827 18.6905 9.16667 18.3332 9.16667H11.6666V10.4167C11.6666 10.647 11.4803 10.8333 11.25 10.8333H8.74997C8.51966 10.8333 8.33329 10.647 8.33329 10.4167V9.16667H1.66667C1.30941 9.16667 0.964372 9.04827 0.668123 8.82405C0.542381 8.72804 0.373124 8.71175 0.231093 8.78296C0.089531 8.85339 0 8.9978 0 9.15612V15C0 15.9192 0.747459 16.6667 1.66667 16.6667H18.3333C19.2525 16.6667 20 15.9192 20 15V9.15612C19.9999 8.9978 19.9104 8.85339 19.7688 8.78296Z" fill="#314CA3"/>
</svg>
