<svg width="15" height="20" viewBox="0 0 15 20" fill="none" xmlns="http://www.w3.org/2000/svg">
<path d="M14.6353 17.275L13.569 5.56875C13.5403 5.24625 13.2703 5 12.9465 5H11.0715V3.75C11.0715 2.745 10.6815 1.8025 9.97528 1.09625C9.28028 0.4 8.31278 0 7.32153 0C5.25403 0 3.57153 1.6825 3.57153 3.75V5H1.69653C1.37278 5 1.10278 5.24625 1.07403 5.56875L0.0102783 17.2738C-0.0534717 17.9725 0.181528 18.6688 0.654028 19.1863C1.12653 19.7038 1.79903 20 2.50028 20H12.144C12.844 20 13.5165 19.7038 13.989 19.1875C14.4628 18.67 14.6965 17.9725 14.6353 17.275ZM9.82153 5H4.82153V3.75C4.82153 2.37125 5.94278 1.25 7.32153 1.25C7.98403 1.25 8.62903 1.515 9.09153 1.97875C9.56278 2.45 9.82153 3.07875 9.82153 3.75V5Z" fill="#314CA3"/>
</svg>
