<svg width="17" height="20" viewBox="0 0 17 20" fill="none" xmlns="http://www.w3.org/2000/svg">
<path d="M15.8369 13.7617C15.2118 13.3864 13.9116 12.6051 13.9116 10.5728C13.9116 8.85752 15.0595 7.99188 15.6761 7.52684L15.689 7.51708C15.9365 7.33044 15.9955 6.98294 15.8237 6.72484C14.4461 4.65659 12.0804 4.59685 11.6204 4.60544H11.6177C11.3022 4.60583 11.0011 4.64215 10.7157 4.69954C10.8211 4.6152 10.9234 4.5254 11.0218 4.43013C12.0073 3.47663 12.5489 2.06981 12.5071 0.569287C12.4981 0.252626 12.2389 0 11.9218 0C10.8559 0 9.6439 0.636836 8.75874 1.66218C7.86693 2.69533 7.45031 3.93308 7.61626 5.05759C7.62993 5.15091 7.66585 5.23603 7.71739 5.30905C7.5612 5.25673 7.39604 5.19581 7.23283 5.13568C6.61278 4.90727 5.90957 4.64839 5.25126 4.64839C5.23798 4.64839 3.8995 4.65815 2.56296 5.48827C1.39393 6.21491 0 7.72715 0 10.8075C0 12.4095 0.625903 14.6523 1.59463 16.5218C2.26387 17.8134 3.65273 19.9813 5.43634 19.9914H5.45547C6.75608 19.9914 7.83374 19.2234 8.56663 19.2234C9.81844 19.2234 10.264 20 11.6177 20C12.8312 20 14.0073 19.0781 15.1134 17.2606C15.5195 16.5929 15.8354 15.9326 16.0287 15.4961C16.3976 14.6644 16.3976 14.5535 16.3976 14.4723C16.3976 14.0986 16.1126 13.9272 15.8369 13.7617ZM9.64547 2.42747C10.1261 1.87068 10.7317 1.45758 11.3053 1.27523C11.1956 2.18461 10.8114 3.00418 10.2073 3.5883C9.78408 3.99789 9.27609 4.26418 8.7603 4.35594C8.81496 3.71247 9.12264 3.03307 9.64547 2.42747ZM14.0561 16.7436C13.2201 18.0883 12.3541 18.8286 11.6177 18.8286C10.6044 18.8286 10.1308 18.052 8.56663 18.052C7.51123 18.052 6.50424 18.8255 5.44297 18.82C4.6152 18.8154 3.5391 17.7283 2.63481 15.983C1.74573 14.2677 1.17137 12.2361 1.17137 10.8075C1.17137 8.7849 1.83632 7.33747 3.14669 6.50502C4.16696 5.85725 5.21065 5.82094 5.25477 5.81977C6.16922 5.82211 7.4386 6.63153 8.36359 6.63153C9.19644 6.63153 10.3116 5.77681 11.622 5.77681H11.6434C11.9613 5.77057 13.4618 5.8061 14.516 6.95014C13.771 7.5776 12.7402 8.70603 12.7402 10.5728C12.7402 13.1084 14.3438 14.2216 15.1013 14.6859C14.9127 15.1427 14.5531 15.9443 14.0561 16.7436Z" fill="#314CA3"/>
</svg>
