<svg width="18" height="20" viewBox="0 0 18 20" fill="none" xmlns="http://www.w3.org/2000/svg">
<path d="M17.0086 2.72842C14.4112 2.72842 12.4231 2.07744 11.2128 1.53132C9.8971 0.937664 9.18759 0.335246 9.18169 0.330202L8.79839 0L8.41454 0.329224C8.40754 0.335246 7.69799 0.937703 6.3823 1.53132C5.17199 2.07744 3.18398 2.72842 0.586504 2.72842H0V10.7794L8.79756 20L17.5951 10.7875V2.72842H17.0086ZM15.2491 8.20504C15.2491 9.11455 14.8957 9.96971 14.2538 10.6137L8.79756 16.2817L3.34131 10.6137C2.69941 9.96967 2.34602 9.11451 2.34602 8.205V7.9001C2.34602 6.01863 3.87671 4.48789 5.75822 4.48789C6.60259 4.48789 7.41326 4.79897 8.04086 5.36382L8.77629 6.02571L9.3147 5.48729C9.95919 4.84281 10.8161 4.48785 11.7275 4.48785H11.8369C13.7184 4.48785 15.2491 6.01855 15.2491 7.90006V8.20504H15.2491Z" fill="#314CA3"/>
<path d="M11.837 5.66091H11.7276C11.1295 5.66091 10.5672 5.89383 10.1443 6.31673L8.81892 7.64208L7.25628 6.23568C6.84439 5.86501 6.31243 5.66087 5.7583 5.66087C4.5236 5.66087 3.51911 6.66535 3.51911 7.90006V8.20497C3.51911 8.80308 3.75203 9.36542 4.17494 9.78833L4.18276 9.79627L8.79761 14.5902L13.4203 9.78829C13.8432 9.36538 14.0761 8.80304 14.0761 8.20493V7.90002C14.0762 6.66543 13.0717 5.66091 11.837 5.66091ZM10.5572 10.9394H9.38415V12.1125H8.21114V10.9394H7.03814V9.76644H8.21114V8.59343H9.38415V9.76644H10.5572V10.9394Z" fill="#314CA3"/>
</svg>
