<svg width="20" height="18" viewBox="0 0 20 18" fill="none" xmlns="http://www.w3.org/2000/svg">
<path d="M18.9036 8.1403V2.2087C18.9036 0.990846 17.9128 0 16.6949 0H2.20863C0.990777 0 0 0.990846 0 2.2087V11.2128C0 12.4306 0.990777 13.4215 2.20863 13.4215H7.93652C8.7011 15.956 11.057 17.8073 13.8375 17.8073C17.2355 17.8073 20 15.0428 20 11.6448C20.0001 10.3437 19.5945 9.13593 18.9036 8.1403ZM10.3332 6.57868H1.36054V4.64992H17.5431V6.72407C16.511 5.94494 15.2274 5.48231 13.8375 5.48231C12.5367 5.48224 11.3288 5.88783 10.3332 6.57868ZM2.20863 1.36054H16.6949C17.1626 1.36054 17.5431 1.74102 17.5431 2.2087V3.28937H1.36054V2.2087C1.36054 1.74102 1.74102 1.36054 2.20863 1.36054ZM2.20863 12.0609C1.74102 12.0609 1.36054 11.6804 1.36054 11.2128V7.93922H8.91686C8.13773 8.97128 7.67511 10.2549 7.67511 11.6448C7.67511 11.7847 7.68022 11.9233 7.68945 12.061H2.20863V12.0609ZM13.8376 16.4467C11.1898 16.4467 9.03565 14.2925 9.03565 11.6447C9.03565 8.99694 11.1898 6.84279 13.8376 6.84279C16.4854 6.84279 18.6395 8.99694 18.6395 11.6447C18.6395 14.2925 16.4854 16.4467 13.8376 16.4467Z" fill="#314CA3"/>
<path d="M10.5482 9.86795C10.1725 9.86795 9.86792 10.1725 9.86792 10.5482V12.7411C9.86792 13.1168 10.1725 13.4214 10.5482 13.4214H17.1269C17.5026 13.4214 17.8071 13.1168 17.8071 12.7411V10.5482C17.8071 10.1725 17.5026 9.86795 17.1269 9.86795H10.5482ZM16.4466 12.0609H11.2285V11.2286H16.4466V12.0609Z" fill="#314CA3"/>
</svg>
