<svg width="20" height="15" viewBox="0 0 20 15" fill="none" xmlns="http://www.w3.org/2000/svg">
<path d="M17.6621 2.55453V2.28094C17.6621 1.02324 16.6389 0 15.3812 0H2.28093C1.0232 3.90625e-05 0 1.02324 0 2.28094V2.55453H17.6621Z" fill="#314CA3"/>
<path d="M10.4347 9.8917C10.4347 8.70853 10.8152 7.58397 11.5178 6.65717H0V9.83888C0 11.0966 1.0232 12.1198 2.28093 12.1198H10.9162C10.601 11.4294 10.4347 10.6734 10.4347 9.8917ZM8.83108 9.20037H6.86249V8.0285H8.83108V9.20037ZM2.62726 8.0285H5.69062V9.20037H2.62726V8.0285Z" fill="#314CA3"/>
<path d="M12.7344 5.4853C13.6281 4.86003 14.6897 4.52315 15.8033 4.52315C16.4478 4.52315 17.0748 4.63632 17.6621 4.8526V3.72643H0V5.4853H12.7344Z" fill="#314CA3"/>
<path d="M20 9.89169C20 7.57392 18.1211 5.69501 15.8033 5.69501C13.4855 5.69501 11.6066 7.57392 11.6066 9.89169C11.6066 12.2095 13.4855 14.0884 15.8033 14.0884C18.1211 14.0884 20 12.2095 20 9.89169ZM16.369 12.1337V12.6106H15.7831V12.6106V12.6106H15.1971V12.1372C14.8429 12.0172 14.553 11.8062 14.27 11.5992L14.9618 10.6533C15.342 10.9314 15.5366 11.0651 15.8033 11.0651C15.9541 11.0651 16.0761 10.9933 16.1219 10.8778C16.1773 10.738 16.099 10.6091 15.9124 10.5332C15.9124 10.5332 15.0749 10.2538 14.6876 9.85903C14.3627 9.52786 14.2594 9.06106 14.3628 8.61704C14.467 8.16997 14.7688 7.8204 15.1971 7.64583V7.17271H16.369V7.62622C16.6666 7.70888 16.9185 7.83103 17.0634 7.90966L16.5043 8.93954C16.1336 8.73833 15.7925 8.67794 15.6598 8.72333C15.531 8.76731 15.5115 8.8513 15.5041 8.88294C15.4936 8.92774 15.4881 8.99649 15.5597 9.07634C15.6286 9.15317 16.3542 9.44782 16.3542 9.44782C17.1371 9.76653 17.5056 10.5669 17.2113 11.3095C17.0585 11.6955 16.7508 11.9878 16.369 12.1337Z" fill="#314CA3"/>
</svg>
