<svg width="17" height="20" viewBox="0 0 17 20" fill="none" xmlns="http://www.w3.org/2000/svg">
<path d="M11.0066 4.9429H12.9756L12.9417 3.74355H11.2773L12.8416 0.510507L11.0718 0.362413L9.5174 1.55394L10.0357 0.206497L8.22161 0L7.62665 1.68379L6.64894 0.380143L3.95933 0.286802L5.73902 3.74407L4.13245 3.69244V4.94238H5.68061C2.37883 6.8749 0 11.9263 0 14.6551C0 18.0758 3.73563 20 8.34311 20C12.9506 20 16.6862 18.0758 16.6862 14.6551C16.6867 11.9263 14.3084 6.87542 11.0066 4.9429ZM9.0408 16.2961V17.4803H7.90249V16.3774C7.1245 16.3435 6.36944 16.1329 5.9283 15.8784L6.27663 14.5205C6.76418 14.788 7.44988 15.031 8.20441 15.031C8.86612 15.031 9.31925 14.7755 9.31925 14.3119C9.31925 13.8692 8.94798 13.5902 8.08864 13.3008C6.84552 12.8831 5.99817 12.3017 5.99817 11.1764C5.99817 10.1544 6.71829 9.35235 7.96089 9.10935V8.00594H9.09921V9.028C9.87668 9.06346 10.4002 9.22459 10.7829 9.41075L10.4461 10.7233C10.1442 10.596 9.6097 10.328 8.77382 10.328C8.01877 10.328 7.77474 10.6529 7.77474 10.9777C7.77474 11.3615 8.18146 11.605 9.16856 11.9768C10.5499 12.466 11.1078 13.1032 11.1078 14.1492C11.1083 15.1812 10.3762 16.064 9.0408 16.2961Z" fill="#314CA3"/>
</svg>
