<svg width="18" height="20" viewBox="0 0 18 20" fill="none" xmlns="http://www.w3.org/2000/svg">
<path d="M16.1319 13.3559C15.5943 14.8128 14.7813 16.0796 13.7152 17.1207C12.5017 18.3057 10.9126 19.2473 8.99216 19.919C8.92914 19.941 8.86337 19.959 8.7973 19.9722C8.71002 19.9895 8.62122 19.9988 8.53317 20H8.51593C8.42209 20 8.32779 19.9905 8.23425 19.9722C8.16818 19.959 8.10333 19.941 8.04062 19.9194C6.11786 19.2488 4.52682 18.3077 3.31207 17.1227C2.24548 16.0815 1.43264 14.8155 0.895839 13.3586C-0.0802668 10.7097 -0.0247248 7.79159 0.0199835 5.44662L0.0207464 5.41061C0.0297491 5.21697 0.0355475 5.01357 0.0387518 4.78896C0.0550787 3.68621 0.93185 2.77389 2.03476 2.71239C4.33426 2.58407 6.11313 1.8341 7.63306 0.35262L7.64633 0.340413C7.89871 0.108937 8.21671 -0.00458834 8.53317 0.00014191C8.83835 0.00410921 9.14231 0.117482 9.38568 0.340413L9.39865 0.35262C10.9189 1.8341 12.6978 2.58407 14.9973 2.71239C16.1002 2.77389 16.9769 3.68621 16.9933 4.78896C16.9965 5.0151 17.0023 5.21819 17.0113 5.41061L17.0117 5.42587C17.0563 7.77526 17.1115 10.6992 16.1319 13.3559Z" fill="#314CA3"/>
<path d="M16.1319 13.3558C15.5944 14.8128 14.7814 16.0795 13.7152 17.1206C12.5017 18.3056 10.9127 19.2473 8.99219 19.919C8.92917 19.9409 8.8634 19.9589 8.79733 19.9722C8.71005 19.9895 8.62125 19.9988 8.5332 20V0.00012207C8.83838 0.00408937 9.14233 0.117462 9.38571 0.340393L9.39868 0.3526C10.9189 1.83408 12.6978 2.58405 14.9973 2.71237C16.1002 2.77387 16.977 3.68619 16.9933 4.78894C16.9965 5.01508 17.0023 5.21817 17.0113 5.41059L17.0117 5.42585C17.0563 7.77524 17.1115 10.6991 16.1319 13.3558Z" fill="#314CA3"/>
<path d="M13.5001 9.99998C13.5001 12.7424 11.2734 14.9748 8.53326 14.9846H8.51572C5.76746 14.9846 3.53113 12.7484 3.53113 9.99998C3.53113 7.25171 5.76746 5.01553 8.51572 5.01553H8.53326C11.2734 5.0253 13.5001 7.25766 13.5001 9.99998Z" fill="white"/>
<path d="M11.5782 9.1975L8.55292 11.8814L7.8992 12.4612C7.74477 12.5982 7.54222 12.6666 7.33988 12.6666C7.13733 12.6666 6.93498 12.5982 6.78035 12.4612L5.37484 11.214C5.06597 10.94 5.06597 10.4962 5.37484 10.2221C5.68329 9.94809 6.18421 9.94809 6.49308 10.2221L7.33988 10.9732L10.46 8.20558C10.7688 7.93143 11.2698 7.93143 11.5782 8.20558C11.8871 8.47955 11.8871 8.92389 11.5782 9.1975Z" fill="#314CA3"/>
</svg>
