<svg width="20" height="20" viewBox="0 0 20 20" fill="none" xmlns="http://www.w3.org/2000/svg">
<path d="M16.2389 10.612C15.8664 10.612 15.4983 10.6665 15.1446 10.774L10.5846 12.0363V5.58691C10.5846 5.26383 10.8475 5.00098 11.1705 5.00098C11.4936 5.00098 11.7565 5.26383 11.7565 5.58691V10.145H12.3424C14.604 10.145 16.444 8.30508 16.444 6.04348C16.444 4.21336 15.2147 2.58957 13.4523 2.09402L5.8841 0V10.0448L2.84734 10.8854C2.48875 10.9751 2.145 11.1177 1.8255 11.3093C0.047497 12.3753 -0.531722 14.6892 0.534372 16.4672C0.956599 17.1714 1.58078 17.7068 2.33945 18.0155C2.79172 18.1995 3.27886 18.2929 3.76535 18.2928C4.06742 18.2928 4.36929 18.2568 4.66226 18.1842L5.8841 17.8461V18.8609L9.99867 20L17.3261 17.9716L17.3414 17.9672C18.0948 17.7364 18.7714 17.2608 19.2468 16.6279C19.7387 15.973 19.9987 15.1929 19.9987 14.3718C19.9987 12.2987 18.312 10.612 16.2389 10.612ZM5.88406 13.3375L2.80265 14.1905L3.11531 15.3199L5.88406 14.5534V16.6302L4.37297 17.0486C4.16539 17.0994 3.95679 17.124 3.7509 17.124C2.85797 17.1239 2.01687 16.6609 1.53941 15.8646C0.805622 14.6407 1.20429 13.048 2.42812 12.3143C2.65015 12.1811 2.88875 12.0824 3.13726 12.0208L5.88406 11.2607V13.3375ZM9.41273 5.58691V18.6218L7.05597 17.9694V1.54016L13.1375 3.22285C14.3943 3.57625 15.2721 4.73617 15.2721 6.04352C15.2721 7.45832 14.2639 8.64211 12.9284 8.91434V5.58691C12.9284 4.61766 12.1398 3.8291 11.1705 3.8291C10.2013 3.8291 9.41273 4.61766 9.41273 5.58691ZM17.0053 16.8445L10.5846 18.6218V16.545L17.1951 14.7151L16.8825 13.5857L10.5846 15.3291V13.2523L15.4645 11.9013L15.4798 11.8969C15.7246 11.8219 15.98 11.7839 16.2389 11.7839C17.6659 11.7839 18.8268 12.9448 18.8268 14.3718C18.8268 15.5145 18.095 16.5073 17.0053 16.8445Z" fill="#314CA3"/>
</svg>
