<svg width="19" height="19" viewBox="0 0 19 19" fill="none" xmlns="http://www.w3.org/2000/svg">
<path d="M18.4766 5.27067L16.7658 6.98148C16.5914 7.1559 16.3093 7.1559 16.1349 6.98148L12.0156 2.86218C11.8412 2.68776 11.8412 2.40571 12.0156 2.23129L13.7264 0.52048C14.4204 -0.173493 15.5486 -0.173493 16.2463 0.52048L18.4766 2.75084C19.1743 3.44482 19.1743 4.57299 18.4766 5.27067ZM10.546 3.70088L0.800715 13.4462L0.013965 17.9552C-0.0936565 18.5638 0.437029 19.0908 1.04565 18.9869L5.55462 18.1964L15.2999 8.45107C15.4744 8.27665 15.4744 7.99461 15.2999 7.82019L11.1806 3.70088C11.0025 3.52646 10.7205 3.52646 10.546 3.70088ZM4.60458 12.6112C4.40047 12.4071 4.40047 12.0805 4.60458 11.8764L10.3197 6.16133C10.5238 5.95722 10.8503 5.95722 11.0544 6.16133C11.2586 6.36544 11.2586 6.69202 11.0544 6.89613L5.33937 12.6112C5.13526 12.8153 4.80869 12.8153 4.60458 12.6112ZM3.26488 15.7322H5.0462V17.0794L2.65255 17.4987L1.4984 16.3446L1.91775 13.9509H3.26488V15.7322Z" fill="white"/>
</svg>
